<?xml version="1.0" standalone="no"?>
<!DOCTYPE svg PUBLIC "-//W3C//DTD SVG 20010904//EN"
 "http://www.w3.org/TR/2001/REC-SVG-20010904/DTD/svg10.dtd">
<svg version="1.0" xmlns="http://www.w3.org/2000/svg"
 width="1000.000000pt" height="1000.000000pt" viewBox="0 0 1000.000000 1000.000000"
 preserveAspectRatio="xMidYMid meet">
<metadata>
Created by potrace 1.14, written by Peter Selinger 2001-2017
</metadata>
<g transform="translate(0.000000,1000.000000) scale(0.100000,-0.100000)"
fill="#000000" stroke="none">
<path d="M4379 9996 c-2 -2 -27 -6 -56 -10 -28 -3 -118 -17 -200 -31 -1242
-213 -2373 -905 -3140 -1920 -72 -96 -183 -254 -183 -261 0 -3 -11 -20 -24
-37 -13 -18 -48 -73 -78 -122 -210 -347 -377 -716 -494 -1087 -35 -114 -102
-359 -110 -407 -3 -14 -7 -34 -10 -43 -3 -10 -7 -30 -10 -45 -3 -16 -7 -35 -9
-43 -2 -8 -7 -31 -10 -50 -3 -19 -8 -46 -10 -60 -3 -14 -7 -41 -10 -60 -3 -19
-7 -46 -10 -60 -3 -14 -8 -52 -12 -85 -10 -76 -10 -1253 -1 -1320 24 -170 30
-205 55 -325 8 -41 17 -86 20 -100 14 -82 100 -396 133 -490 5 -14 23 -65 40
-115 17 -49 35 -99 40 -110 5 -11 34 -83 66 -160 56 -137 227 -483 265 -536
10 -15 19 -29 19 -32 0 -12 210 -338 251 -391 5 -6 38 -51 75 -101 90 -120
179 -228 294 -355 141 -155 228 -241 419 -414 44 -40 280 -228 322 -258 13 -9
51 -36 84 -60 164 -119 390 -256 610 -368 454 -232 851 -366 1410 -476 11 -2
41 -6 66 -9 25 -3 56 -8 70 -10 13 -3 47 -8 74 -11 28 -3 61 -8 75 -10 157
-27 1034 -27 1175 0 11 2 45 7 76 10 31 4 67 9 80 11 13 3 67 12 119 21 75 12
266 52 380 79 105 25 373 110 519 164 233 87 582 254 780 374 52 31 97 57 102
57 4 0 9 4 11 8 2 4 35 27 73 51 110 70 400 282 471 346 7 5 38 33 70 60 119
101 251 230 405 392 49 51 161 180 219 252 19 24 40 48 45 55 57 63 281 387
346 499 19 33 42 73 53 90 137 231 295 571 386 830 68 195 138 440 166 577 3
14 10 45 15 70 6 25 13 56 15 70 2 14 7 36 10 50 3 13 7 40 10 60 2 19 6 42 9
50 2 8 7 38 10 65 4 28 8 61 10 75 2 14 7 52 10 85 4 33 9 74 11 90 26 211 25
868 -1 1000 -2 11 -7 47 -10 80 -3 33 -7 69 -9 80 -2 11 -7 43 -10 70 -6 48
-14 97 -23 140 -2 11 -6 36 -9 55 -3 19 -9 51 -14 70 -5 19 -12 50 -15 67 -16
93 -74 309 -130 483 -293 913 -876 1760 -1620 2355 -55 44 -102 83 -105 86 -9
11 -274 194 -355 246 -180 115 -466 269 -645 347 -36 16 -83 36 -105 46 -301
132 -733 257 -1100 319 -66 11 -138 24 -160 28 -42 7 -1278 16 -1286 9z"/>
</g>
</svg>
